<svg xmlns="http://www.w3.org/2000/svg" xmlns:xlink="http://www.w3.org/1999/xlink" width="150" zoomAndPan="magnify" viewBox="0 0 112.5 112.499997" height="150" preserveAspectRatio="xMidYMid meet" version="1.0"><defs><clipPath id="019d01776a"><path d="M 0 0 L 112.003906 0 L 112.003906 112.003906 L 0 112.003906 Z M 0 0 " clip-rule="nonzero"/></clipPath><clipPath id="f39dcf5f51"><path d="M 2.941406 2.941406 L 108.96875 2.941406 L 108.96875 108.96875 L 2.941406 108.96875 Z M 2.941406 2.941406 " clip-rule="nonzero"/></clipPath><clipPath id="683956a199"><path d="M 74 22.261719 L 79 22.261719 L 79 32 L 74 32 Z M 74 22.261719 " clip-rule="nonzero"/></clipPath><clipPath id="df51af8305"><path d="M 95 49 L 105.28125 49 L 105.28125 54 L 95 54 Z M 95 49 " clip-rule="nonzero"/></clipPath><clipPath id="be9798cb44"><path d="M 11.199219 45 L 88 45 L 88 89.460938 L 11.199219 89.460938 Z M 11.199219 45 " clip-rule="nonzero"/></clipPath></defs><g clip-path="url(#019d01776a)"><path fill="#ffffff" d="M 0 0 L 112.003906 0 L 112.003906 112.003906 L 0 112.003906 Z M 0 0 " fill-opacity="1" fill-rule="nonzero"/><path fill="#ffffff" d="M 0 0 L 112.003906 0 L 112.003906 112.003906 L 0 112.003906 Z M 0 0 " fill-opacity="1" fill-rule="nonzero"/></g><g clip-path="url(#f39dcf5f51)"><path fill="#e8b17d" d="M 109.0625 56 C 109.0625 57.738281 108.976562 59.472656 108.804688 61.203125 C 108.636719 62.929688 108.382812 64.648438 108.042969 66.351562 C 107.703125 68.058594 107.28125 69.742188 106.777344 71.402344 C 106.273438 73.066406 105.6875 74.699219 105.023438 76.304688 C 104.359375 77.910156 103.617188 79.480469 102.796875 81.011719 C 101.976562 82.546875 101.085938 84.035156 100.121094 85.480469 C 99.152344 86.925781 98.121094 88.320312 97.015625 89.664062 C 95.914062 91.003906 94.75 92.292969 93.519531 93.519531 C 92.292969 94.75 91.003906 95.914062 89.664062 97.015625 C 88.320312 98.121094 86.925781 99.152344 85.480469 100.121094 C 84.035156 101.085938 82.546875 101.976562 81.011719 102.796875 C 79.480469 103.617188 77.910156 104.359375 76.304688 105.023438 C 74.699219 105.6875 73.066406 106.273438 71.402344 106.777344 C 69.742188 107.28125 68.058594 107.703125 66.351562 108.042969 C 64.648438 108.382812 62.929688 108.636719 61.203125 108.804688 C 59.472656 108.976562 57.738281 109.0625 56 109.0625 C 54.261719 109.0625 52.527344 108.976562 50.800781 108.804688 C 49.070312 108.636719 47.351562 108.382812 45.648438 108.042969 C 43.945312 107.703125 42.261719 107.28125 40.597656 106.777344 C 38.933594 106.273438 37.300781 105.6875 35.695312 105.023438 C 34.089844 104.359375 32.519531 103.617188 30.988281 102.796875 C 29.457031 101.976562 27.964844 101.085938 26.523438 100.121094 C 25.078125 99.152344 23.683594 98.121094 22.339844 97.015625 C 20.996094 95.914062 19.710938 94.75 18.480469 93.519531 C 17.253906 92.292969 16.085938 91.003906 14.984375 89.664062 C 13.882812 88.320312 12.847656 86.925781 11.882812 85.480469 C 10.917969 84.035156 10.023438 82.546875 9.203125 81.011719 C 8.386719 79.480469 7.644531 77.910156 6.980469 76.304688 C 6.3125 74.699219 5.730469 73.066406 5.222656 71.402344 C 4.71875 69.742188 4.296875 68.058594 3.960938 66.351562 C 3.621094 64.648438 3.367188 62.929688 3.195312 61.203125 C 3.023438 59.472656 2.941406 57.738281 2.941406 56 C 2.941406 54.261719 3.023438 52.527344 3.195312 50.800781 C 3.367188 49.070312 3.621094 47.351562 3.960938 45.648438 C 4.296875 43.945312 4.71875 42.261719 5.222656 40.597656 C 5.730469 38.933594 6.3125 37.300781 6.980469 35.695312 C 7.644531 34.089844 8.386719 32.519531 9.203125 30.988281 C 10.023438 29.457031 10.917969 27.964844 11.882812 26.523438 C 12.847656 25.078125 13.882812 23.683594 14.984375 22.339844 C 16.085938 20.996094 17.253906 19.710938 18.480469 18.480469 C 19.710938 17.253906 20.996094 16.085938 22.339844 14.984375 C 23.683594 13.882812 25.078125 12.847656 26.523438 11.882812 C 27.964844 10.917969 29.457031 10.023438 30.988281 9.203125 C 32.519531 8.386719 34.089844 7.644531 35.695312 6.980469 C 37.300781 6.3125 38.933594 5.730469 40.597656 5.222656 C 42.261719 4.71875 43.945312 4.296875 45.648438 3.960938 C 47.351562 3.621094 49.070312 3.367188 50.800781 3.195312 C 52.527344 3.023438 54.261719 2.941406 56 2.941406 C 57.738281 2.941406 59.472656 3.023438 61.203125 3.195312 C 62.929688 3.367188 64.648438 3.621094 66.351562 3.960938 C 68.058594 4.296875 69.742188 4.71875 71.402344 5.222656 C 73.066406 5.730469 74.699219 6.3125 76.304688 6.980469 C 77.910156 7.644531 79.480469 8.386719 81.011719 9.203125 C 82.546875 10.023438 84.035156 10.917969 85.480469 11.882812 C 86.925781 12.847656 88.320312 13.882812 89.664062 14.984375 C 91.003906 16.085938 92.292969 17.253906 93.519531 18.480469 C 94.75 19.710938 95.914062 20.996094 97.015625 22.339844 C 98.121094 23.683594 99.152344 25.078125 100.121094 26.523438 C 101.085938 27.964844 101.976562 29.457031 102.796875 30.988281 C 103.617188 32.519531 104.359375 34.089844 105.023438 35.695312 C 105.6875 37.300781 106.273438 38.933594 106.777344 40.597656 C 107.28125 42.261719 107.703125 43.945312 108.042969 45.648438 C 108.382812 47.351562 108.636719 49.070312 108.804688 50.800781 C 108.976562 52.527344 109.0625 54.261719 109.0625 56 Z M 109.0625 56 " fill-opacity="1" fill-rule="nonzero"/></g><path fill="#ffcc00" d="M 90.917969 51.300781 C 90.917969 52.273438 90.820312 53.234375 90.632812 54.1875 C 90.441406 55.136719 90.160156 56.0625 89.789062 56.960938 C 89.414062 57.855469 88.957031 58.710938 88.417969 59.515625 C 87.875 60.324219 87.261719 61.070312 86.574219 61.757812 C 85.882812 62.445312 85.136719 63.058594 84.324219 63.597656 C 83.515625 64.136719 82.660156 64.589844 81.761719 64.964844 C 80.863281 65.335938 79.933594 65.613281 78.980469 65.804688 C 78.023438 65.992188 77.058594 66.089844 76.085938 66.089844 C 75.113281 66.089844 74.148438 65.992188 73.195312 65.804688 C 72.238281 65.613281 71.3125 65.335938 70.410156 64.964844 C 69.511719 64.589844 68.65625 64.136719 67.847656 63.597656 C 67.039062 63.058594 66.289062 62.445312 65.601562 61.757812 C 64.910156 61.070312 64.296875 60.324219 63.757812 59.515625 C 63.214844 58.710938 62.757812 57.855469 62.386719 56.960938 C 62.011719 56.0625 61.730469 55.136719 61.542969 54.1875 C 61.351562 53.234375 61.257812 52.273438 61.257812 51.300781 C 61.257812 50.332031 61.351562 49.367188 61.542969 48.417969 C 61.730469 47.464844 62.011719 46.539062 62.386719 45.644531 C 62.757812 44.746094 63.214844 43.894531 63.757812 43.085938 C 64.296875 42.277344 64.910156 41.53125 65.601562 40.84375 C 66.289062 40.160156 67.039062 39.546875 67.847656 39.007812 C 68.65625 38.46875 69.511719 38.011719 70.410156 37.640625 C 71.3125 37.269531 72.238281 36.988281 73.195312 36.796875 C 74.148438 36.609375 75.113281 36.515625 76.085938 36.515625 C 77.058594 36.515625 78.023438 36.609375 78.980469 36.796875 C 79.933594 36.988281 80.863281 37.269531 81.761719 37.640625 C 82.660156 38.011719 83.515625 38.46875 84.324219 39.007812 C 85.136719 39.546875 85.882812 40.160156 86.574219 40.84375 C 87.261719 41.53125 87.875 42.277344 88.417969 43.085938 C 88.957031 43.894531 89.414062 44.746094 89.789062 45.644531 C 90.160156 46.539062 90.441406 47.464844 90.632812 48.417969 C 90.820312 49.367188 90.917969 50.332031 90.917969 51.300781 Z M 90.917969 51.300781 " fill-opacity="1" fill-rule="nonzero"/><g clip-path="url(#683956a199)"><path fill="#ffcc00" d="M 76.085938 22.253906 C 75.011719 22.253906 74.144531 23.292969 74.144531 24.578125 L 74.144531 29.613281 C 74.144531 30.902344 75.011719 31.9375 76.085938 31.9375 C 77.164062 31.9375 78.027344 30.902344 78.027344 29.613281 L 78.027344 24.578125 C 78.027344 23.292969 77.164062 22.253906 76.085938 22.253906 Z M 76.085938 22.253906 " fill-opacity="1" fill-rule="nonzero"/></g><path fill="#ffcc00" d="M 96.683594 30.761719 C 95.925781 30.003906 94.578125 30.125 93.664062 31.035156 L 90.09375 34.597656 C 89.179688 35.507812 89.058594 36.851562 89.820312 37.609375 C 90.578125 38.367188 91.925781 38.246094 92.839844 37.335938 L 96.410156 33.773438 C 97.324219 32.863281 97.445312 31.519531 96.683594 30.761719 Z M 96.683594 30.761719 " fill-opacity="1" fill-rule="nonzero"/><g clip-path="url(#df51af8305)"><path fill="#ffcc00" d="M 105.21875 51.300781 C 105.21875 50.230469 104.175781 49.367188 102.886719 49.367188 L 97.835938 49.367188 C 96.546875 49.367188 95.507812 50.230469 95.507812 51.300781 C 95.507812 52.375 96.546875 53.238281 97.835938 53.238281 L 102.886719 53.238281 C 104.175781 53.238281 105.21875 52.375 105.21875 51.300781 Z M 105.21875 51.300781 " fill-opacity="1" fill-rule="nonzero"/></g><path fill="#ffcc00" d="M 96.683594 71.839844 C 97.445312 71.082031 97.324219 69.738281 96.410156 68.828125 L 92.839844 65.269531 C 91.925781 64.359375 90.578125 64.234375 89.820312 64.996094 C 89.058594 65.753906 89.179688 67.097656 90.09375 68.007812 L 93.664062 71.566406 C 94.578125 72.476562 95.925781 72.601562 96.683594 71.839844 Z M 96.683594 71.839844 " fill-opacity="1" fill-rule="nonzero"/><path fill="#ffcc00" d="M 76.085938 80.347656 C 77.164062 80.347656 78.027344 79.3125 78.027344 78.023438 L 78.027344 72.992188 C 78.027344 71.703125 77.164062 70.667969 76.085938 70.667969 C 75.011719 70.667969 74.144531 71.703125 74.144531 72.992188 L 74.144531 78.023438 C 74.144531 79.3125 75.011719 80.347656 76.085938 80.347656 Z M 76.085938 80.347656 " fill-opacity="1" fill-rule="nonzero"/><path fill="#ffcc00" d="M 55.488281 71.839844 C 56.25 72.601562 57.597656 72.476562 58.507812 71.566406 L 62.078125 68.007812 C 62.992188 67.097656 63.113281 65.753906 62.355469 64.996094 C 61.59375 64.234375 60.246094 64.359375 59.332031 65.269531 L 55.761719 68.828125 C 54.851562 69.738281 54.726562 71.082031 55.488281 71.839844 Z M 55.488281 71.839844 " fill-opacity="1" fill-rule="nonzero"/><path fill="#ffcc00" d="M 46.957031 51.300781 C 46.957031 52.375 47.996094 53.238281 49.285156 53.238281 L 54.335938 53.238281 C 55.625 53.238281 56.667969 52.375 56.667969 51.300781 C 56.667969 50.230469 55.625 49.367188 54.335938 49.367188 L 49.285156 49.367188 C 47.996094 49.367188 46.957031 50.230469 46.957031 51.300781 Z M 46.957031 51.300781 " fill-opacity="1" fill-rule="nonzero"/><path fill="#ffcc00" d="M 55.488281 30.761719 C 54.726562 31.519531 54.851562 32.863281 55.761719 33.773438 L 59.332031 37.335938 C 60.246094 38.246094 61.59375 38.367188 62.355469 37.609375 C 63.113281 36.851562 62.992188 35.507812 62.078125 34.597656 L 58.507812 31.035156 C 57.597656 30.125 56.25 30.003906 55.488281 30.761719 Z M 55.488281 30.761719 " fill-opacity="1" fill-rule="nonzero"/><g clip-path="url(#be9798cb44)"><path fill="#c6e0f7" d="M 39.226562 45.59375 C 38.675781 45.59375 38.125 45.621094 37.574219 45.675781 C 37.023438 45.730469 36.476562 45.8125 35.933594 45.917969 C 35.390625 46.027344 34.855469 46.160156 34.324219 46.320312 C 33.796875 46.480469 33.277344 46.664062 32.765625 46.878906 C 32.253906 47.089844 31.753906 47.324219 31.265625 47.582031 C 30.777344 47.84375 30.304688 48.125 29.84375 48.433594 C 29.386719 48.738281 28.941406 49.066406 28.515625 49.417969 C 28.085938 49.769531 27.675781 50.136719 27.285156 50.527344 C 26.894531 50.917969 26.523438 51.324219 26.171875 51.753906 C 25.820312 52.179688 25.492188 52.621094 25.183594 53.078125 C 24.878906 53.539062 24.59375 54.011719 24.332031 54.496094 C 24.074219 54.984375 23.835938 55.480469 23.625 55.992188 C 23.414062 56.5 23.226562 57.019531 23.066406 57.546875 C 22.90625 58.074219 22.773438 58.609375 22.664062 59.152344 C 22.554688 59.691406 22.476562 60.234375 22.421875 60.785156 C 22.367188 61.335938 22.339844 61.882812 22.339844 62.4375 C 22.34375 63.058594 22.382812 63.679688 22.453125 64.300781 C 16.085938 65.441406 11.304688 70.570312 11.304688 76.765625 C 11.304688 83.800781 17.472656 89.464844 25.136719 89.464844 L 74.484375 89.464844 C 81.539062 89.464844 87.222656 84.199219 87.222656 77.660156 C 87.222656 71.160156 81.609375 65.921875 74.613281 65.855469 C 74.503906 64.984375 74.316406 64.125 74.046875 63.289062 C 73.78125 62.449219 73.441406 61.640625 73.027344 60.863281 C 72.617188 60.085938 72.136719 59.351562 71.589844 58.660156 C 71.042969 57.96875 70.4375 57.332031 69.777344 56.75 C 69.113281 56.167969 68.402344 55.648438 67.648438 55.195312 C 66.890625 54.742188 66.101562 54.359375 65.273438 54.046875 C 64.449219 53.734375 63.601562 53.5 62.734375 53.34375 C 61.863281 53.183594 60.988281 53.105469 60.105469 53.105469 C 58 53.109375 55.992188 53.542969 54.078125 54.414062 C 53.351562 53.078125 52.464844 51.867188 51.410156 50.769531 C 50.355469 49.675781 49.175781 48.742188 47.871094 47.964844 C 46.5625 47.191406 45.175781 46.601562 43.710938 46.199219 C 42.242188 45.796875 40.75 45.59375 39.226562 45.59375 Z M 39.226562 45.59375 " fill-opacity="1" fill-rule="nonzero"/></g></svg>